<svg width="730" height="218" viewBox="0 0 730 218" fill="none" xmlns="http://www.w3.org/2000/svg">
<path d="M159.614 27.34C123.1 -9.11334 63.8996 -9.11334 27.3855 27.34C-9.1285 63.7934 -9.12851 122.896 27.3855 159.349L80.9353 212.81C87.8746 219.738 99.1373 219.726 106.077 212.798L110.074 208.807V139.264C110.046 139.273 110.018 139.283 109.99 139.293V201.603C109.99 210.651 102.643 217.986 93.5804 217.986C84.5175 217.986 77.1706 210.651 77.1706 201.603V139.229C58.1079 132.458 44.4603 114.285 44.4603 92.9303C44.4603 65.7972 66.4926 43.8015 93.6708 43.8015C120.849 43.8015 142.881 65.7972 142.881 92.9303C142.881 93.1255 142.88 93.3205 142.878 93.5152H142.881V176.055L159.614 159.349C196.128 122.896 196.129 63.7934 159.614 27.34Z" fill="#141C27"/>
<path d="M109.99 103.531C107.062 109.343 100.814 113.357 93.5804 113.357C86.3465 113.357 80.0993 109.343 77.1706 103.531L77.1706 201.603C77.1706 210.651 84.5175 217.986 93.5804 217.986C102.643 217.986 109.99 210.651 109.99 201.603L109.99 103.531Z" fill="#141C27"/>
<path d="M107.32 93.4205C107.32 100.999 101.167 107.142 93.576 107.142C85.9852 107.142 79.8316 100.999 79.8316 93.4205C79.8316 85.8423 85.9852 79.699 93.576 79.699C101.167 79.699 107.32 85.8423 107.32 93.4205Z" fill="#141C27"/>
<path d="M363.909 90.3594C363.044 87.3523 361.829 84.6953 360.263 82.3885C358.698 80.0405 356.783 78.0632 354.517 76.4567C352.293 74.8089 349.739 73.5526 346.855 72.6875C344.013 71.8224 340.862 71.3899 337.401 71.3899C330.934 71.3899 325.249 72.9964 320.347 76.2095C315.487 79.4226 311.697 84.098 308.978 90.2358C306.259 96.3324 304.9 103.788 304.9 112.604C304.9 121.419 306.239 128.916 308.916 135.095C311.594 141.274 315.384 145.991 320.286 149.245C325.188 152.458 330.975 154.065 337.648 154.065C343.704 154.065 348.874 152.994 353.158 150.852C357.483 148.668 360.778 145.599 363.044 141.645C365.351 137.69 366.504 133.015 366.504 127.619L371.942 128.422H339.317V108.278H392.271V124.22C392.271 135.342 389.923 144.899 385.227 152.891C380.531 160.841 374.063 166.979 365.825 171.304C357.586 175.588 348.153 177.73 337.525 177.73C325.661 177.73 315.239 175.114 306.259 169.883C297.279 164.61 290.276 157.134 285.251 147.453C280.266 137.732 277.774 126.197 277.774 112.851C277.774 102.594 279.257 93.4489 282.223 85.4162C285.23 77.3423 289.432 70.5043 294.828 64.902C300.224 59.2997 306.506 55.0362 313.674 52.1115C320.842 49.1868 328.607 47.7244 336.969 47.7244C344.136 47.7244 350.81 48.7749 356.989 50.8757C363.168 52.9354 368.646 55.8601 373.425 59.6499C378.244 63.4396 382.178 67.9503 385.227 73.1818C388.275 78.3722 390.232 84.098 391.097 90.3594H363.909ZM411.873 176V81.0909H437.393V97.6506H438.381C440.111 91.7599 443.015 87.3111 447.094 84.304C451.172 81.2557 455.868 79.7315 461.182 79.7315C462.5 79.7315 463.921 79.8139 465.445 79.9787C466.969 80.1435 468.308 80.37 469.461 80.6584V104.015C468.226 103.644 466.516 103.315 464.333 103.026C462.15 102.738 460.152 102.594 458.339 102.594C454.467 102.594 451.007 103.438 447.959 105.127C444.952 106.775 442.562 109.082 440.791 112.048C439.061 115.013 438.196 118.433 438.196 122.305V176H411.873ZM521.906 177.854C512.143 177.854 503.739 175.876 496.695 171.922C489.692 167.926 484.296 162.283 480.506 154.991C476.717 147.659 474.822 138.988 474.822 128.978C474.822 119.215 476.717 110.647 480.506 103.273C484.296 95.8999 489.631 90.1534 496.51 86.0341C503.43 81.9148 511.545 79.8551 520.855 79.8551C527.116 79.8551 532.945 80.8643 538.342 82.8828C543.779 84.8601 548.516 87.8466 552.553 91.8423C556.631 95.8381 559.803 100.864 562.069 106.919C564.335 112.933 565.467 119.977 565.467 128.051V135.281H485.326V118.968H540.69C540.69 115.178 539.866 111.821 538.218 108.896C536.57 105.972 534.284 103.685 531.359 102.038C528.476 100.349 525.119 99.5043 521.288 99.5043C517.292 99.5043 513.749 100.431 510.66 102.285C507.612 104.097 505.222 106.548 503.492 109.638C501.762 112.686 500.876 116.085 500.835 119.833V135.342C500.835 140.038 501.7 144.096 503.43 147.515C505.202 150.934 507.694 153.57 510.907 155.424C514.12 157.278 517.93 158.205 522.338 158.205C525.263 158.205 527.94 157.793 530.371 156.969C532.801 156.145 534.881 154.909 536.612 153.261C538.342 151.614 539.66 149.595 540.566 147.206L564.911 148.812C563.675 154.662 561.142 159.77 557.311 164.136C553.521 168.462 548.619 171.839 542.605 174.27C536.632 176.659 529.732 177.854 521.906 177.854ZM582.645 176V81.0909H608.967V176H582.645ZM595.868 68.8565C591.955 68.8565 588.597 67.5589 585.796 64.9638C583.036 62.3274 581.656 59.1761 581.656 55.5099C581.656 51.8849 583.036 48.7749 585.796 46.1797C588.597 43.5433 591.955 42.2251 595.868 42.2251C599.781 42.2251 603.118 43.5433 605.878 46.1797C608.679 48.7749 610.08 51.8849 610.08 55.5099C610.08 59.1761 608.679 62.3274 605.878 64.9638C603.118 67.5589 599.781 68.8565 595.868 68.8565ZM630.053 211.591V81.0909H656.005V97.0327H657.179C658.332 94.4787 660.001 91.8835 662.184 89.2472C664.408 86.5696 667.292 84.3452 670.834 82.5739C674.418 80.7614 678.867 79.8551 684.181 79.8551C691.101 79.8551 697.486 81.6676 703.336 85.2926C709.185 88.8764 713.861 94.2933 717.362 101.543C720.863 108.752 722.614 117.794 722.614 128.669C722.614 139.256 720.905 148.195 717.486 155.486C714.108 162.736 709.494 168.235 703.645 171.984C697.836 175.691 691.328 177.545 684.119 177.545C679.011 177.545 674.665 176.7 671.081 175.011C667.539 173.322 664.635 171.201 662.369 168.647C660.104 166.052 658.373 163.436 657.179 160.8H656.376V211.591H630.053ZM655.819 128.545C655.819 134.189 656.602 139.112 658.167 143.313C659.733 147.515 661.998 150.79 664.964 153.138C667.93 155.445 671.535 156.598 675.778 156.598C680.062 156.598 683.687 155.424 686.653 153.076C689.618 150.687 691.863 147.391 693.388 143.19C694.953 138.947 695.736 134.065 695.736 128.545C695.736 123.067 694.974 118.247 693.449 114.087C691.925 109.926 689.68 106.672 686.714 104.324C683.748 101.976 680.103 100.802 675.778 100.802C671.493 100.802 667.868 101.935 664.903 104.2C661.978 106.466 659.733 109.679 658.167 113.839C656.602 118 655.819 122.902 655.819 128.545Z" fill="#141C27"/>
</svg>
